# xmcd CD database file
#
# Track frame offsets:
#	150
#	2092
#	24107
#	46025
#	68522
#	84872
#	100325
#	119720
#	138612
#	153552
#	178722
#	202602
#	235645
#	332550
#
# Disc length: 4442 seconds
#
# Revision: 12
# Processed by: cddbd v1.5.1PL0 Copyright (c) Steve Scherf et al.
# Submitted via: CDex 1.51
#
DISCID=a411580e
DTITLE=Tommy february6 - Tommy airline
DYEAR=2004
DGENRE=JPop
TTITLE0=AttenTion pLEasE
TTITLE1=je t'aime★je t'aime
TTITLE2=sEpia memory
TTITLE3=ふたりのシーサイド
TTITLE4=CAndY EyEs doLLS∵
TTITLE5=ChOOSe mE or Die
TTITLE6=daNCin' bABY
TTITLE7=SwEEt dREAM
TTITLE8=ThE RoSe fraGranCe
TTITLE9=MaGic in youR Eyes
TTITLE10=I still love you boy
TTITLE11=Love is forever
TTITLE12=Data Track 13
TTITLE13=Data Track 14
EXTD=YEAR: 2004
EXTT0=
EXTT1=
EXTT2=
EXTT3=
EXTT4=
EXTT5=
EXTT6=
EXTT7=
EXTT8=
EXTT9=
EXTT10=
EXTT11=
EXTT12=
EXTT13=
PLAYORDER=
